<svg width="86" height="84" viewBox="0 0 86 84" fill="none" xmlns="http://www.w3.org/2000/svg">
<path fill-rule="evenodd" clip-rule="evenodd" d="M41.2889 59.3596C39.9689 60.4886 39.5149 62.3506 39.2039 64.3226C38.4169 69.3256 38.1429 74.8666 37.9639 80.5996C37.9299 81.6966 38.0019 82.8066 37.7159 83.8256C35.1659 83.6786 32.8189 83.0486 30.6189 82.3376C24.6539 80.4086 19.6509 77.5686 15.3339 73.8016C14.9569 73.4726 14.3909 72.9786 14.3419 72.6596C14.2519 72.0796 14.7219 71.1186 14.9379 70.4756C16.5599 65.6416 18.5099 61.2586 21.3389 57.7216C22.8989 55.8556 25.0639 54.0346 27.8899 53.3046C29.5119 52.8856 31.2489 52.8536 32.7029 53.2556C34.1069 53.6436 35.1579 54.4996 36.2259 55.1906C34.8789 52.6676 32.1939 51.0336 28.6329 50.7746C24.9769 50.5076 21.7149 52.1386 19.3529 53.5036C15.5819 55.6836 12.7439 58.9356 10.5699 62.7336C9.83591 64.0156 9.36891 65.4166 8.58491 66.7036C8.08691 66.5896 7.77791 66.0836 7.49291 65.7116C6.61591 64.5656 5.83191 63.2136 5.11091 61.8906C2.26691 56.6696 -0.0220869 50.3086 -8.68759e-05 42.3386C1.73791 41.6406 3.77991 41.3996 5.85491 41.0476C7.96091 40.6926 10.1699 40.6046 12.4059 40.5026C19.2919 40.1896 25.3429 41.9866 29.5269 44.6706C33.4769 47.2036 36.2489 50.9696 38.0129 55.7866C38.1419 56.1406 38.3279 56.6826 38.9059 56.6306C39.2459 56.1776 38.8839 55.6016 38.7579 55.1916C37.7489 51.9016 36.0729 49.0356 34.1429 46.6066C31.8929 43.7766 29.2389 41.4596 26.0039 39.6596C22.8459 37.9016 18.9029 36.7756 14.4899 36.0866C10.1819 35.4126 4.94891 35.7236 0.445913 36.0866C0.192913 35.0356 0.508913 33.9546 0.693913 32.9596C2.00991 25.9136 5.13591 20.2626 8.88191 15.5906C9.17891 15.2196 9.50391 14.9306 9.87391 14.4986C10.1369 14.1926 10.5309 13.5246 10.9659 13.5066C11.2449 13.4936 12.0429 14.0326 12.5049 14.3006C15.9369 16.2866 18.9429 18.7996 21.6859 21.3476C24.9589 24.3886 27.7569 27.7066 30.2709 31.2736C30.9129 32.1836 31.4189 33.2116 32.0079 34.2016C34.8839 39.0366 37.2449 44.2896 38.9549 50.3796C39.4579 52.1696 39.8819 54.0286 40.3449 55.9386C40.4649 56.4316 40.4389 57.3326 41.2879 57.2786C41.6709 56.8066 41.3689 56.1416 41.2879 55.6406C39.6959 45.8916 36.7739 37.1116 32.8019 29.6856C31.4049 27.0766 29.9669 24.4306 28.3349 21.9936C27.8059 21.2036 27.1699 20.4326 26.5989 19.6616C24.9019 17.3766 22.8699 15.2796 20.8919 13.2606C19.6059 11.9866 18.6019 11.1376 17.1699 10.0346C16.9139 9.8376 15.9939 9.2426 15.9789 8.9426C15.9519 8.4196 17.6989 7.4496 18.0629 7.2056C23.3689 3.6526 29.6529 0.906595 37.4169 0.0105951C38.1119 -0.0704049 38.1009 0.308595 38.3109 1.3006C39.1199 5.1456 39.6479 9.27359 40.1469 13.4086C40.7279 18.2326 41.2149 23.0846 41.5369 27.9496C42.1149 36.7346 42.4589 45.3876 42.8269 54.5986C42.8469 55.0776 42.8479 55.8476 42.8769 56.5346C42.9079 57.2906 43.0479 58.0766 42.9269 58.3706C42.6959 58.9266 41.6169 58.8786 41.2889 59.3596Z" fill="#BD0238"/>
<path fill-rule="evenodd" clip-rule="evenodd" d="M68.6828 8.59264C68.4918 9.16264 67.9298 9.36164 67.5408 9.73464C67.1868 10.1246 66.7758 10.4586 66.3498 10.7766C60.7298 16.2496 55.9568 22.9366 52.5038 30.7256C49.9288 36.5386 47.8698 42.8976 46.5488 50.0806C46.2238 51.8516 45.9328 53.6206 45.6548 55.5396C45.5798 56.0666 45.2888 56.7216 45.6548 57.2276C46.4608 57.2216 46.4488 56.3386 46.5488 55.8376C47.4258 51.4686 48.4438 47.2046 49.8238 43.3816C53.8078 32.3566 59.9698 23.6626 68.3348 16.8316C69.4928 15.8856 70.8558 14.9546 72.2058 13.9526C72.6018 13.6586 73.3598 13.1496 73.6448 13.1586C74.0788 13.1726 74.4908 13.8186 74.7858 14.1516C75.7738 15.2656 76.8758 16.3956 77.6648 17.5756C80.7958 21.7666 83.2568 26.6906 84.6118 32.7116C84.7978 33.5366 85.0658 34.4446 84.9098 35.3426C83.2398 35.4086 81.5478 35.2116 79.8478 35.1436C74.4198 34.9266 69.3838 35.7946 65.3068 37.1286C59.7458 38.9466 55.5128 42.3046 52.4048 46.4086C50.8298 48.4776 49.4978 50.9056 48.5338 53.6536C48.2278 54.5246 47.7488 55.4726 47.8878 56.4826C48.9178 56.4126 48.9428 55.0406 49.2278 54.2986C50.1988 51.7806 51.4958 49.6846 53.1488 47.7476C55.3118 45.2146 58.1058 43.4806 61.4858 42.0906C64.7128 40.7626 68.9098 39.9556 73.3468 39.9566C76.5958 39.9566 79.9428 40.3866 82.8748 40.8986C83.8318 41.0656 84.8128 41.2046 85.6038 41.6426C85.9018 50.8686 83.1918 58.0366 79.6988 63.8746C79.4588 64.2776 79.1358 64.6836 78.8548 65.0656C78.5788 65.4436 78.3478 65.9346 77.8628 66.0576C77.3918 65.4656 77.1878 64.7326 76.8708 64.0736C75.9328 62.1246 74.7728 60.3416 73.3968 58.7146C72.9268 58.1596 72.4588 57.6356 72.0568 57.0766C70.8978 55.4686 69.0728 54.1626 67.2428 53.1056C64.8868 51.7456 61.6278 50.3026 58.0618 50.5756C54.6068 50.8386 52.0388 52.2886 50.6188 54.8926C51.7028 54.2996 52.6258 53.3916 54.0918 53.0066C59.0268 51.7096 63.2438 54.7666 65.3578 57.4226C67.7958 60.4846 69.6848 63.7836 71.1648 67.9436C71.4818 68.8376 71.8818 69.8416 72.1568 71.0196C72.2578 71.4486 72.4288 71.8766 72.4048 72.1116C72.3268 72.8566 70.9208 73.8166 70.3208 74.3446C65.7458 78.3796 60.1768 81.3246 53.2498 82.9796C52.1038 83.2526 50.9298 83.6706 49.6768 83.5756C49.3498 82.5876 49.5078 81.5126 49.4288 80.4496C49.2038 77.4486 49.1538 74.2876 48.8328 71.1696C48.6328 69.2266 48.3618 67.2426 48.0388 65.2646C47.6428 62.8426 47.2378 60.4186 45.6558 59.2096C45.3328 58.9616 44.3888 58.7926 44.1678 58.4156C43.8158 57.8156 44.0678 55.7586 44.0678 54.6446C44.0688 45.9736 44.1848 36.7246 44.3668 28.2916C44.4708 23.3956 44.7528 18.4416 45.1598 13.7016C45.4678 10.1226 45.7538 6.61064 46.1528 3.18064C46.2778 2.10864 46.2888 0.949639 46.7978 0.00463867C51.2188 0.255639 55.6468 1.66964 59.1058 3.03064C60.8998 3.73664 62.7468 4.48564 64.2668 5.46264C65.8218 6.46564 67.4358 7.34364 68.6828 8.59264Z" fill="#BD0238"/>
</svg>
