<svg width="260" height="85" viewBox="0 0 260 85" fill="none" xmlns="http://www.w3.org/2000/svg">
<path d="M63.5125 63.2623C63.5125 66.1187 65.8616 68.4436 68.7482 68.4436H102.484C105.372 68.4436 107.721 66.1198 107.721 63.2623V48.3905C107.721 45.5341 105.371 43.2102 102.484 43.2102H68.7492C65.8616 43.2102 63.5135 45.5341 63.5135 48.3905L63.5125 63.2623ZM76.2235 50.8204V45.3707H91.2691V50.8204H76.2235ZM105.554 52.5107V58.4493C105.505 58.4441 105.462 58.4274 105.411 58.4274H65.9336C65.8428 58.4274 65.7625 58.4503 65.679 58.468V52.5107H105.554ZM102.484 66.282H68.7482C67.0555 66.282 65.679 64.9267 65.679 63.2623V60.0772C65.7625 60.0949 65.8428 60.1178 65.9336 60.1178H105.412C105.463 60.1178 105.506 60.1001 105.555 60.0959V63.2634C105.554 64.9267 104.176 66.282 102.484 66.282ZM105.554 48.3905V50.8204H92.3127V45.3707H102.484C104.176 45.3697 105.554 46.7251 105.554 48.3905ZM68.7482 45.3697H75.1799V50.8194H65.6779V48.3894C65.6779 46.7251 67.0555 45.3697 68.7482 45.3697ZM64.1188 23.6283C63.7723 24.1079 63.6335 24.6914 63.7285 25.2739L64.8566 32.2007V38.8278C64.8566 40.047 65.8512 41.0383 67.0743 41.0383H106.295C107.518 41.0383 108.512 40.047 108.512 38.8278V31.5401H70.6256L107.862 25.5153L107.991 25.4945L106.82 18.3004C106.644 17.2248 105.724 16.4436 104.631 16.4436C104.513 16.4436 104.392 16.454 104.274 16.4727L65.561 22.7379C64.9787 22.8326 64.4653 23.1488 64.1188 23.6283ZM106.163 33.8817V38.6989H103.074L100.576 33.8817H106.163ZM95.1179 33.8817L97.396 38.6989H90.4634L87.964 33.8817H95.1179ZM82.507 33.8817L84.7852 38.6989H78.2011L75.7017 33.8817H82.507ZM67.2047 38.6978V33.8806H70.2447L72.5229 38.6978H67.2047ZM100.698 19.4238L104.522 18.8049L105.296 23.5586L99.4363 24.5063L100.698 19.4238ZM88.7999 21.3492L95.3798 20.2851L93.9083 25.4029L87.5382 26.4327L88.7999 21.3492ZM77.4393 23.1873L83.4984 22.2074L82.0269 27.3252L76.1786 28.2718L77.4393 23.1873ZM72.1795 24.0382L70.7081 29.157L66.8415 29.7832L66.0672 25.0284L72.1795 24.0382Z" fill="#FF0048"/>
<path d="M21.5871 68.7496C17.6561 68.7496 14.2748 67.9167 11.4432 66.251C8.62817 64.5687 6.4628 62.2368 4.94704 59.2552C3.44794 56.2737 2.69839 52.8424 2.69839 48.9614C2.69839 45.0304 3.45627 41.5825 4.97203 38.6176C6.50444 35.636 8.67814 33.3124 11.4931 31.6467C14.3081 29.9644 17.6561 29.1233 21.5371 29.1233C24.8851 29.1233 27.8167 29.7312 30.3319 30.9472C32.847 32.1631 34.8375 33.8704 36.3033 36.0691C37.7691 38.2678 38.5769 40.8496 38.7268 43.8145H28.6828C28.3997 41.8989 27.6501 40.3582 26.4342 39.1922C25.2349 38.0096 23.6608 37.4183 21.712 37.4183C20.063 37.4183 18.6222 37.868 17.3896 38.7675C16.1737 39.6503 15.2242 40.9412 14.5413 42.6402C13.8584 44.3392 13.5169 46.3963 13.5169 48.8115C13.5169 51.26 13.85 53.3421 14.5163 55.0577C15.1992 56.7734 16.157 58.0809 17.3896 58.9804C18.6222 59.8799 20.063 60.3296 21.712 60.3296C22.9279 60.3296 24.019 60.0797 24.9851 59.58C25.9678 59.0803 26.7756 58.3558 27.4086 57.4063C28.0582 56.4402 28.483 55.2826 28.6828 53.9334H38.7268C38.5603 56.865 37.7607 59.4468 36.3283 61.6788C34.9124 63.8941 32.9553 65.6264 30.4568 66.8757C27.9583 68.1249 25.0017 68.7496 21.5871 68.7496ZM56.1851 16.8306V68H45.5415V16.8306H56.1851ZM123.208 56.9566L123.233 44.1892H124.782L137.074 29.623H149.292L132.777 48.9114H130.253L123.208 56.9566ZM113.563 68V16.8306H124.207V68H113.563ZM137.549 68L126.256 51.285L133.351 43.7645L150.016 68H137.549ZM170.423 68.7496C166.475 68.7496 163.077 67.95 160.229 66.351C157.397 64.7353 155.215 62.4533 153.683 59.5051C152.151 56.5402 151.384 53.034 151.384 48.9864C151.384 45.0387 152.151 41.5741 153.683 38.5926C155.215 35.611 157.373 33.2874 160.154 31.6218C162.952 29.9561 166.234 29.1233 169.998 29.1233C172.53 29.1233 174.887 29.5314 177.069 30.3475C179.268 31.147 181.183 32.3547 182.816 33.9704C184.465 35.5861 185.747 37.6182 186.663 40.0667C187.579 42.4986 188.037 45.3469 188.037 48.6116V51.5349H155.632V44.9388H178.018C178.018 43.4064 177.685 42.0489 177.019 40.8662C176.353 39.6836 175.428 38.7592 174.246 38.0929C173.08 37.41 171.722 37.0685 170.173 37.0685C168.557 37.0685 167.125 37.4433 165.876 38.1928C164.643 38.9257 163.677 39.9168 162.977 41.1661C162.278 42.3987 161.92 43.7728 161.903 45.2886V51.5598C161.903 53.4587 162.253 55.0994 162.952 56.4819C163.669 57.8644 164.676 58.9304 165.976 59.68C167.275 60.4295 168.816 60.8043 170.598 60.8043C171.781 60.8043 172.863 60.6377 173.846 60.3046C174.829 59.9715 175.67 59.4718 176.369 58.8055C177.069 58.1392 177.602 57.3231 177.969 56.357L187.813 57.0066C187.313 59.3718 186.289 61.4373 184.739 63.2029C183.207 64.9518 181.225 66.3177 178.793 67.3004C176.378 68.2665 173.588 68.7496 170.423 68.7496ZM215.396 29.623V37.6182H192.285V29.623H215.396ZM197.532 20.4285H208.175V56.2071C208.175 57.1898 208.325 57.956 208.625 58.5057C208.925 59.0387 209.341 59.4135 209.874 59.63C210.424 59.8465 211.057 59.9548 211.773 59.9548C212.273 59.9548 212.773 59.9132 213.272 59.8299C213.772 59.7299 214.155 59.655 214.422 59.605L216.096 67.5253C215.563 67.6919 214.813 67.8834 213.847 68.0999C212.881 68.3331 211.707 68.4747 210.324 68.5247C207.759 68.6246 205.51 68.2832 203.578 67.5003C201.663 66.7174 200.172 65.5015 199.106 63.8525C198.04 62.2035 197.515 60.1214 197.532 57.6062V20.4285ZM239.407 68.7496C235.459 68.7496 232.061 67.95 229.213 66.351C226.381 64.7353 224.199 62.4533 222.667 59.5051C221.134 56.5402 220.368 53.034 220.368 48.9864C220.368 45.0387 221.134 41.5741 222.667 38.5926C224.199 35.611 226.356 33.2874 229.138 31.6218C231.936 29.9561 235.218 29.1233 238.982 29.1233C241.514 29.1233 243.871 29.5314 246.053 30.3475C248.251 31.147 250.167 32.3547 251.799 33.9704C253.448 35.5861 254.731 37.6182 255.647 40.0667C256.563 42.4986 257.021 45.3469 257.021 48.6116V51.5349H224.616V44.9388H247.002C247.002 43.4064 246.669 42.0489 246.003 40.8662C245.337 39.6836 244.412 38.7592 243.229 38.0929C242.063 37.41 240.706 37.0685 239.157 37.0685C237.541 37.0685 236.109 37.4433 234.859 38.1928C233.627 38.9257 232.661 39.9168 231.961 41.1661C231.262 42.3987 230.904 43.7728 230.887 45.2886V51.5598C230.887 53.4587 231.237 55.0994 231.936 56.4819C232.652 57.8644 233.66 58.9304 234.959 59.68C236.259 60.4295 237.799 60.8043 239.582 60.8043C240.764 60.8043 241.847 60.6377 242.83 60.3046C243.812 59.9715 244.654 59.4718 245.353 58.8055C246.053 58.1392 246.586 57.3231 246.952 56.357L256.796 57.0066C256.297 59.3718 255.272 61.4373 253.723 63.2029C252.191 64.9518 250.209 66.3177 247.777 67.3004C245.362 68.2665 242.572 68.7496 239.407 68.7496Z" fill="#FF0048"/>
</svg>
