<svg width="54" height="54" viewBox="0 0 54 54" fill="none" xmlns="http://www.w3.org/2000/svg">
<path d="M16.75 36.515C16.75 37.8205 17.8202 38.8831 19.1352 38.8831H34.5035C35.8195 38.8831 36.8896 37.821 36.8896 36.515V29.718C36.8896 28.4125 35.819 27.3504 34.5035 27.3504H19.1356C17.8202 27.3504 16.7505 28.4125 16.7505 29.718L16.75 36.515ZM22.5406 30.8285V28.3378H29.3947V30.8285H22.5406ZM35.9022 31.6011V34.3153C35.8798 34.3129 35.8604 34.3053 35.8371 34.3053H17.853C17.8116 34.3053 17.775 34.3157 17.737 34.3238V31.6011H35.9022ZM34.5035 37.8951H19.1352C18.364 37.8951 17.737 37.2757 17.737 36.515V35.0593C17.775 35.0674 17.8116 35.0778 17.853 35.0778H35.8375C35.8608 35.0778 35.8803 35.0697 35.9027 35.0678V36.5155C35.9022 37.2757 35.2746 37.8951 34.5035 37.8951ZM35.9022 29.718V30.8285H29.8701V28.3378H34.5035C35.2746 28.3374 35.9022 28.9568 35.9022 29.718ZM19.1352 28.3374H22.0652V30.8281H17.7365V29.7175C17.7365 28.9568 18.364 28.3374 19.1352 28.3374ZM17.0262 18.4007C16.8684 18.6198 16.8051 18.8865 16.8484 19.1528L17.3623 22.3186V25.3475C17.3623 25.9046 17.8154 26.3577 18.3726 26.3577H36.2397C36.7969 26.3577 37.25 25.9046 37.25 25.3475V22.0167H19.9904L36.9538 19.2631L37.0123 19.2536L36.4789 15.9656C36.399 15.474 35.9797 15.1169 35.4819 15.1169C35.4282 15.1169 35.3731 15.1217 35.3193 15.1303L17.6832 17.9937C17.418 18.037 17.1841 18.1815 17.0262 18.4007ZM36.1798 23.0868V25.2885H34.7726L33.6345 23.0868H36.1798ZM31.148 23.0868L32.1859 25.2885H29.0277L27.889 23.0868H31.148ZM25.4031 23.0868L26.4409 25.2885H23.4415L22.3029 23.0868H25.4031ZM18.432 25.288V23.0864H19.8169L20.8548 25.288H18.432ZM33.6901 16.479L35.432 16.1961L35.7848 18.3688L33.1153 18.8019L33.6901 16.479ZM28.2698 17.359L31.2673 16.8727L30.597 19.2117L27.6951 19.6824L28.2698 17.359ZM23.0944 18.1991L25.8547 17.7512L25.1844 20.0903L22.5201 20.5229L23.0944 18.1991ZM20.6983 18.588L20.028 20.9275L18.2666 21.2137L17.9138 19.0406L20.6983 18.588Z" fill="url(#paint0_linear_43_1552)"/>
<defs>
<linearGradient id="paint0_linear_43_1552" x1="18.0987" y1="13.691" x2="39.5611" y2="17.6283" gradientUnits="userSpaceOnUse">
<stop stop-color="#FF5269"/>
<stop offset="0.467544" stop-color="#D53021"/>
<stop offset="1" stop-color="#AB2325"/>
</linearGradient>
</defs>
</svg>
